<?xml version="1.0" encoding="UTF-8" standalone="no"?>
<!DOCTYPE svg PUBLIC "-//W3C//DTD SVG 1.1//EN"
 "http://www.w3.org/Graphics/SVG/1.1/DTD/svg11.dtd">
<!-- Generated by graphviz version 12.0.0 (20240704.0754)
 -->
<!-- Pages: 1 -->
<svg width="490pt" height="573pt"
 viewBox="0.00 0.00 490.40 573.40" xmlns="http://www.w3.org/2000/svg" xmlns:xlink="http://www.w3.org/1999/xlink">
<g id="graph0" class="graph" transform="scale(1 1) rotate(0) translate(18 555.4)">
<polygon fill="white" stroke="none" points="-18,18 -18,-555.4 472.4,-555.4 472.4,18 -18,18"/>
<text text-anchor="middle" x="227.2" y="-518.2" font-family="Verdana" font-size="16.00">Class diagram for Sample.Data</text>
<!-- Blog -->
<g id="node1" class="node">
<title>Blog</title>
<path fill="none" stroke="black" d="M137.75,-251.7C137.75,-251.7 315.65,-251.7 315.65,-251.7 321.65,-251.7 327.65,-257.7 327.65,-263.7 327.65,-263.7 327.65,-496.65 327.65,-496.65 327.65,-502.65 321.65,-508.65 315.65,-508.65 315.65,-508.65 137.75,-508.65 137.75,-508.65 131.75,-508.65 125.75,-502.65 125.75,-496.65 125.75,-496.65 125.75,-263.7 125.75,-263.7 125.75,-257.7 131.75,-251.7 137.75,-251.7"/>
<text text-anchor="middle" x="226.7" y="-490.05" font-family="Monospace" font-size="12.00">Blog</text>
<polyline fill="none" stroke="black" points="125.75,-480 327.65,-480"/>
<text text-anchor="middle" x="226.7" y="-461.4" font-family="Monospace" font-size="12.00">Id ................. long</text>
<text text-anchor="middle" x="226.7" y="-447.15" font-family="Monospace" font-size="12.00">CreatedAt ...... DateTime</text>
<text text-anchor="middle" x="226.7" y="-432.9" font-family="Monospace" font-size="12.00">DeletedAt ...... DateTime</text>
<text text-anchor="middle" x="226.7" y="-418.65" font-family="Monospace" font-size="12.00">AdminEmail .. string[100]</text>
<text text-anchor="middle" x="226.7" y="-404.4" font-family="Monospace" font-size="12.00">Title ........ string[50]</text>
<text text-anchor="middle" x="226.7" y="-390.15" font-family="Monospace" font-size="12.00">Blurb ........ string[50]</text>
<text text-anchor="middle" x="226.7" y="-375.9" font-family="Monospace" font-size="12.00">Hostname .... string[100]</text>
<text text-anchor="middle" x="226.7" y="-361.65" font-family="Monospace" font-size="12.00">Copyright ... string[100]</text>
<text text-anchor="middle" x="226.7" y="-347.4" font-family="Monospace" font-size="12.00">ThemeId ............. int</text>
<polyline fill="none" stroke="black" points="125.75,-337.35 327.65,-337.35"/>
<text text-anchor="start" x="132.95" y="-318.75" font-family="Monospace" font-size="12.00">Authors</text>
<text text-anchor="start" x="132.95" y="-304.5" font-family="Monospace" font-size="12.00">Categories</text>
<text text-anchor="start" x="132.95" y="-290.25" font-family="Monospace" font-size="12.00">Posts</text>
<text text-anchor="start" x="132.95" y="-276" font-family="Monospace" font-size="12.00">Tags</text>
<text text-anchor="start" x="132.95" y="-261.75" font-family="Monospace" font-size="12.00">Themes</text>
</g>
<!-- Post -->
<g id="node2" class="node">
<title>Post</title>
<path fill="none" stroke="black" d="M12,-0.5C12,-0.5 197.4,-0.5 197.4,-0.5 203.4,-0.5 209.4,-6.5 209.4,-12.5 209.4,-12.5 209.4,-202.7 209.4,-202.7 209.4,-208.7 203.4,-214.7 197.4,-214.7 197.4,-214.7 12,-214.7 12,-214.7 6,-214.7 0,-208.7 0,-202.7 0,-202.7 0,-12.5 0,-12.5 0,-6.5 6,-0.5 12,-0.5"/>
<text text-anchor="middle" x="104.7" y="-196.1" font-family="Monospace" font-size="12.00">Post</text>
<polyline fill="none" stroke="black" points="0,-186.05 209.4,-186.05"/>
<text text-anchor="middle" x="104.7" y="-167.45" font-family="Monospace" font-size="12.00">Id .................. long</text>
<text text-anchor="middle" x="104.7" y="-153.2" font-family="Monospace" font-size="12.00">BlogId .............. long</text>
<text text-anchor="middle" x="104.7" y="-138.95" font-family="Monospace" font-size="12.00">CreatedAt ....... DateTime</text>
<text text-anchor="middle" x="104.7" y="-124.7" font-family="Monospace" font-size="12.00">DeletedAt ....... DateTime</text>
<text text-anchor="middle" x="104.7" y="-110.45" font-family="Monospace" font-size="12.00">Display ...... string[100]</text>
<text text-anchor="middle" x="104.7" y="-96.2" font-family="Monospace" font-size="12.00">Snippet ...... string[500]</text>
<text text-anchor="middle" x="104.7" y="-81.95" font-family="Monospace" font-size="12.00">Markdown .......... string</text>
<text text-anchor="middle" x="104.7" y="-67.7" font-family="Monospace" font-size="12.00">Published ....... DateTime</text>
<polyline fill="none" stroke="black" points="0,-57.65 209.4,-57.65"/>
<text text-anchor="start" x="7.2" y="-39.05" font-family="Monospace" font-size="12.00">Authors</text>
<text text-anchor="start" x="7.2" y="-24.8" font-family="Monospace" font-size="12.00">Comments</text>
<text text-anchor="start" x="7.2" y="-10.55" font-family="Monospace" font-size="12.00">Tags</text>
</g>
<!-- Blog&#45;&gt;Post -->
<g id="edge1" class="edge">
<title>Blog&#45;&gt;Post</title>
<path fill="none" stroke="black" d="M169.09,-251.41C164.85,-242 160.58,-232.53 156.37,-223.2"/>
<ellipse fill="black" stroke="black" cx="154.54" cy="-219.13" rx="4" ry="4"/>
</g>
<!-- Article -->
<g id="node3" class="node">
<title>Article</title>
<path fill="none" stroke="black" d="M257,-21.87C257,-21.87 442.4,-21.87 442.4,-21.87 448.4,-21.87 454.4,-27.87 454.4,-33.87 454.4,-33.87 454.4,-181.32 454.4,-181.32 454.4,-187.32 448.4,-193.32 442.4,-193.32 442.4,-193.32 257,-193.32 257,-193.32 251,-193.32 245,-187.32 245,-181.32 245,-181.32 245,-33.87 245,-33.87 245,-27.88 251,-21.87 257,-21.87"/>
<text text-anchor="middle" x="349.7" y="-174.72" font-family="Monospace" font-size="12.00">Article</text>
<polyline fill="none" stroke="black" points="245,-164.68 454.4,-164.68"/>
<text text-anchor="middle" x="349.7" y="-146.07" font-family="Monospace" font-size="12.00">Id .................. long</text>
<text text-anchor="middle" x="349.7" y="-131.82" font-family="Monospace" font-size="12.00">BlogId .............. long</text>
<text text-anchor="middle" x="349.7" y="-117.57" font-family="Monospace" font-size="12.00">CreatedAt ....... DateTime</text>
<text text-anchor="middle" x="349.7" y="-103.32" font-family="Monospace" font-size="12.00">DeletedAt ....... DateTime</text>
<text text-anchor="middle" x="349.7" y="-89.07" font-family="Monospace" font-size="12.00">Title ........ string[100]</text>
<text text-anchor="middle" x="349.7" y="-74.82" font-family="Monospace" font-size="12.00">Markdown .......... string</text>
<text text-anchor="middle" x="349.7" y="-60.57" font-family="Monospace" font-size="12.00">Published ....... DateTime</text>
<polyline fill="none" stroke="black" points="245,-50.52 454.4,-50.52"/>
<text text-anchor="start" x="252.2" y="-31.93" font-family="Monospace" font-size="12.00">Tags</text>
</g>
<!-- Blog&#45;&gt;Article -->
<g id="edge2" class="edge">
<title>Blog&#45;&gt;Article</title>
<path fill="none" stroke="black" d="M284.78,-251.41C292.42,-234.6 300.14,-217.63 307.45,-201.55"/>
<ellipse fill="black" stroke="black" cx="309.14" cy="-197.82" rx="4" ry="4"/>
</g>
</g>
</svg>
