<?xml version="1.0" encoding="UTF-8" standalone="no"?>
<!DOCTYPE svg PUBLIC "-//W3C//DTD SVG 1.1//EN"
 "http://www.w3.org/Graphics/SVG/1.1/DTD/svg11.dtd">
<!-- Generated by graphviz version 3.0.0 (20220226.1711)
 -->
<!-- Pages: 1 -->
<svg width="492pt" height="535pt"
 viewBox="0.00 0.00 492.00 535.00" xmlns="http://www.w3.org/2000/svg" xmlns:xlink="http://www.w3.org/1999/xlink">
<g id="graph0" class="graph" transform="scale(1 1) rotate(0) translate(18 517)">
<polygon fill="white" stroke="transparent" points="-18,18 -18,-517 474,-517 474,18 -18,18"/>
<text text-anchor="middle" x="228" y="-482.2" font-family="Verdana" font-size="16.00">Class diagram for SampleAPI.Data</text>
<!-- Blog -->
<g id="node1" class="node">
<title>Blog</title>
<path fill="none" stroke="black" d="M139,-235.5C139,-235.5 317,-235.5 317,-235.5 323,-235.5 329,-241.5 329,-247.5 329,-247.5 329,-460.5 329,-460.5 329,-466.5 323,-472.5 317,-472.5 317,-472.5 139,-472.5 139,-472.5 133,-472.5 127,-466.5 127,-460.5 127,-460.5 127,-247.5 127,-247.5 127,-241.5 133,-235.5 139,-235.5"/>
<text text-anchor="middle" x="228" y="-455.9" font-family="Monospace" font-size="12.00">Blog</text>
<polyline fill="none" stroke="black" points="127,-445.5 329,-445.5 "/>
<text text-anchor="middle" x="228" y="-428.9" font-family="Monospace" font-size="12.00">Id ................. long</text>
<text text-anchor="middle" x="228" y="-415.9" font-family="Monospace" font-size="12.00">CreatedAt ...... DateTime</text>
<text text-anchor="middle" x="228" y="-402.9" font-family="Monospace" font-size="12.00">DeletedAt ...... DateTime</text>
<text text-anchor="middle" x="228" y="-389.9" font-family="Monospace" font-size="12.00">AdminEmail .. string[100]</text>
<text text-anchor="middle" x="228" y="-376.9" font-family="Monospace" font-size="12.00">Title ........ string[50]</text>
<text text-anchor="middle" x="228" y="-363.9" font-family="Monospace" font-size="12.00">Blurb ........ string[50]</text>
<text text-anchor="middle" x="228" y="-350.9" font-family="Monospace" font-size="12.00">Hostname .... string[100]</text>
<text text-anchor="middle" x="228" y="-337.9" font-family="Monospace" font-size="12.00">Copyright ... string[100]</text>
<text text-anchor="middle" x="228" y="-324.9" font-family="Monospace" font-size="12.00">ThemeId ............. int</text>
<polyline fill="none" stroke="black" points="127,-314.5 329,-314.5 "/>
<text text-anchor="start" x="134" y="-297.9" font-family="Monospace" font-size="12.00">Authors</text>
<text text-anchor="start" x="134" y="-284.9" font-family="Monospace" font-size="12.00">Categories</text>
<text text-anchor="start" x="134" y="-271.9" font-family="Monospace" font-size="12.00">Posts</text>
<text text-anchor="start" x="134" y="-258.9" font-family="Monospace" font-size="12.00">Tags</text>
<text text-anchor="start" x="134" y="-245.9" font-family="Monospace" font-size="12.00">Themes</text>
</g>
<!-- Post -->
<g id="node2" class="node">
<title>Post</title>
<path fill="none" stroke="black" d="M12,-0.5C12,-0.5 198,-0.5 198,-0.5 204,-0.5 210,-6.5 210,-12.5 210,-12.5 210,-186.5 210,-186.5 210,-192.5 204,-198.5 198,-198.5 198,-198.5 12,-198.5 12,-198.5 6,-198.5 0,-192.5 0,-186.5 0,-186.5 0,-12.5 0,-12.5 0,-6.5 6,-0.5 12,-0.5"/>
<text text-anchor="middle" x="105" y="-181.9" font-family="Monospace" font-size="12.00">Post</text>
<polyline fill="none" stroke="black" points="0,-171.5 210,-171.5 "/>
<text text-anchor="middle" x="105" y="-154.9" font-family="Monospace" font-size="12.00">Id .................. long</text>
<text text-anchor="middle" x="105" y="-141.9" font-family="Monospace" font-size="12.00">BlogId .............. long</text>
<text text-anchor="middle" x="105" y="-128.9" font-family="Monospace" font-size="12.00">CreatedAt ....... DateTime</text>
<text text-anchor="middle" x="105" y="-115.9" font-family="Monospace" font-size="12.00">DeletedAt ....... DateTime</text>
<text text-anchor="middle" x="105" y="-102.9" font-family="Monospace" font-size="12.00">Display ...... string[100]</text>
<text text-anchor="middle" x="105" y="-89.9" font-family="Monospace" font-size="12.00">Snippet ...... string[500]</text>
<text text-anchor="middle" x="105" y="-76.9" font-family="Monospace" font-size="12.00">Markdown .......... string</text>
<text text-anchor="middle" x="105" y="-63.9" font-family="Monospace" font-size="12.00">Published ....... DateTime</text>
<polyline fill="none" stroke="black" points="0,-53.5 210,-53.5 "/>
<text text-anchor="start" x="7" y="-36.9" font-family="Monospace" font-size="12.00">Authors</text>
<text text-anchor="start" x="7" y="-23.9" font-family="Monospace" font-size="12.00">Comments</text>
<text text-anchor="start" x="7" y="-10.9" font-family="Monospace" font-size="12.00">Tags</text>
</g>
<!-- Blog&#45;&gt;Post -->
<g id="edge1" class="edge">
<title>Blog&#45;&gt;Post</title>
<path fill="none" stroke="black" d="M170.64,-235.25C165.9,-225.52 161.13,-215.72 156.43,-206.08"/>
<ellipse fill="black" stroke="black" cx="154.61" cy="-202.35" rx="4" ry="4"/>
</g>
<!-- Article -->
<g id="node3" class="node">
<title>Article</title>
<path fill="none" stroke="black" d="M258,-20C258,-20 444,-20 444,-20 450,-20 456,-26 456,-32 456,-32 456,-167 456,-167 456,-173 450,-179 444,-179 444,-179 258,-179 258,-179 252,-179 246,-173 246,-167 246,-167 246,-32 246,-32 246,-26 252,-20 258,-20"/>
<text text-anchor="middle" x="351" y="-162.4" font-family="Monospace" font-size="12.00">Article</text>
<polyline fill="none" stroke="black" points="246,-152 456,-152 "/>
<text text-anchor="middle" x="351" y="-135.4" font-family="Monospace" font-size="12.00">Id .................. long</text>
<text text-anchor="middle" x="351" y="-122.4" font-family="Monospace" font-size="12.00">BlogId .............. long</text>
<text text-anchor="middle" x="351" y="-109.4" font-family="Monospace" font-size="12.00">CreatedAt ....... DateTime</text>
<text text-anchor="middle" x="351" y="-96.4" font-family="Monospace" font-size="12.00">DeletedAt ....... DateTime</text>
<text text-anchor="middle" x="351" y="-83.4" font-family="Monospace" font-size="12.00">Title ........ string[100]</text>
<text text-anchor="middle" x="351" y="-70.4" font-family="Monospace" font-size="12.00">Markdown .......... string</text>
<text text-anchor="middle" x="351" y="-57.4" font-family="Monospace" font-size="12.00">Published ....... DateTime</text>
<polyline fill="none" stroke="black" points="246,-47 456,-47 "/>
<text text-anchor="start" x="253" y="-30.4" font-family="Monospace" font-size="12.00">Tags</text>
</g>
<!-- Blog&#45;&gt;Article -->
<g id="edge2" class="edge">
<title>Blog&#45;&gt;Article</title>
<path fill="none" stroke="black" d="M285.36,-235.25C293.32,-218.9 301.38,-202.36 309,-186.72"/>
<ellipse fill="black" stroke="black" cx="310.95" cy="-182.73" rx="4" ry="4"/>
</g>
</g>
</svg>
